HIERARCHY
ROOT Hips
{
  OFFSET 6.94559 97.9826 -5.97226
  CHANNELS 6 Xposition Yposition Zposition Zrotation Xrotation Yrotation
  JOINT Spine
  {
    OFFSET 0 7.43174 -5.62489
    CHANNELS 3 Zrotation Xrotation Yrotation
    JOINT Spine1
    {
      OFFSET -1.68772e-005 12.1899 5.09266
      CHANNELS 3 Zrotation Xrotation Yrotation
      JOINT Spine2
      {
        OFFSET 0 11.8846 -0.721684
        CHANNELS 3 Zrotation Xrotation Yrotation
        JOINT Spine3
        {
          OFFSET 1.78224e-005 12.2339 -4.61207
          CHANNELS 3 Zrotation Xrotation Yrotation
          JOINT Neck
          {
            OFFSET 0 10.4098 4.52731
            CHANNELS 3 Zrotation Xrotation Yrotation
            JOINT Head
            {
              OFFSET -1.26215e-005 11.0733 1.65432
              CHANNELS 3 Zrotation Xrotation Yrotation
              JOINT Head_End
              {
                OFFSET -0.000138983 15.8595 1.74931
                CHANNELS 3 Zrotation Xrotation Yrotation
                End Site
                {
                  OFFSET 1 0 0
                }
              }
              JOINT LeftEye
              {
                OFFSET 3.01047 5.50179 8.17526
                CHANNELS 3 Zrotation Xrotation Yrotation
                End Site
                {
                  OFFSET 1 0 0
                }
              }
              JOINT RightEye
              {
                OFFSET -3.07669 5.50186 8.17485
                CHANNELS 3 Zrotation Xrotation Yrotation
                End Site
                {
                  OFFSET 1 0 0
                }
              }
            }
          }
          JOINT LeftShoulder
          {
            OFFSET 7 5.93676 2.0674
            CHANNELS 3 Zrotation Xrotation Yrotation
            JOINT LeftArm
            {
              OFFSET 10.7073 0 -1.10732
              CHANNELS 3 Zrotation Xrotation Yrotation
              JOINT LeftForeArm
              {
                OFFSET 26.8053 0 0
                CHANNELS 3 Zrotation Xrotation Yrotation
                JOINT LeftHand
                {
                  OFFSET 23.1506 0 0
                  CHANNELS 3 Zrotation Xrotation Yrotation
                  JOINT LeftPinky1
                  {
                    OFFSET 7.55349 0.487965 -3.33475
                    CHANNELS 3 Zrotation Xrotation Yrotation
                    JOINT LeftPinky2
                    {
                      OFFSET 2.95377 -0.000325252 -0.177727
                      CHANNELS 3 Zrotation Xrotation Yrotation
                      JOINT LeftPinky3
                      {
                        OFFSET 1.64069 -0.000185286 -0.0962795
                        CHANNELS 3 Zrotation Xrotation Yrotation
                        End Site
                        {
                          OFFSET 2.19252 -0.000258531 -0.122938
                        }
                      }
                    }
                  }
                  JOINT LeftRing1
                  {
                    OFFSET 8.26197 0.365599 -1.81261
                    CHANNELS 3 Zrotation Xrotation Yrotation
                    JOINT LeftRing2
                    {
                      OFFSET 4.14475 -0.000270769 -0.0600348
                      CHANNELS 3 Zrotation Xrotation Yrotation
                      JOINT LeftRing3
                      {
                        OFFSET 2.25621 -0.00018043 -0.0228782
                        CHANNELS 3 Zrotation Xrotation Yrotation
                        End Site
                        {
                          OFFSET 2.34286 -0.00018904 -0.0264023
                        }
                      }
                    }
                  }
                  JOINT LeftMiddle1
                  {
                    OFFSET 8.96265 0.482148 -0.0599234
                    CHANNELS 3 Zrotation Xrotation Yrotation
                    JOINT LeftMiddle2
                    {
                      OFFSET 4.16844 -0.000243795 -0.125986
                      CHANNELS 3 Zrotation Xrotation Yrotation
                      JOINT LeftMiddle3
                      {
                        OFFSET 2.83092 -0.000238626 -0.0864111
                        CHANNELS 3 Zrotation Xrotation Yrotation
                        End Site
                        {
                          OFFSET 2.6988 -0.000224304 -0.0823584
                        }
                      }
                    }
                  }
                  JOINT LeftIndex1
                  {
                    OFFSET 8.87518 0.379009 1.77547
                    CHANNELS 3 Zrotation Xrotation Yrotation
                    JOINT LeftIndex2
                    {
                      OFFSET 3.48836 0 0
                      CHANNELS 3 Zrotation Xrotation Yrotation
                      JOINT LeftIndex3
                      {
                        OFFSET 2.29971 0 0
                        CHANNELS 3 Zrotation Xrotation Yrotation
                        End Site
                        {
                          OFFSET 2.40047 0 0
                        }
                      }
                    }
                  }
                  JOINT LeftThumb1
                  {
                    OFFSET 3.98621 -0.769857 4.13297
                    CHANNELS 3 Zrotation Xrotation Yrotation
                    JOINT LeftThumb2
                    {
                      OFFSET -0.00942664 0.0268727 2.02569
                      CHANNELS 3 Zrotation Xrotation Yrotation
                      JOINT LeftThumb3
                      {
                        OFFSET 0.0839638 0.0371964 2.25283
                        CHANNELS 3 Zrotation Xrotation Yrotation
                        End Site
                        {
                          OFFSET 0.037227 -0.0286126 1.98426
                        }
                      }
                    }
                  }
                }
              }
            }
          }
          JOINT RightShoulder
          {
            OFFSET -7 5.93676 2.0673
            CHANNELS 3 Zrotation Xrotation Yrotation
            JOINT RightArm
            {
              OFFSET -10.7073 0 -0.56284
              CHANNELS 3 Zrotation Xrotation Yrotation
              JOINT RightForeArm
              {
                OFFSET -27.6421 -0.00113387 0
                CHANNELS 3 Zrotation Xrotation Yrotation
                JOINT RightHand
                {
                  OFFSET -23.8318 -0.000977571 0
                  CHANNELS 3 Zrotation Xrotation Yrotation
                  JOINT RightThumb1
                  {
                    OFFSET -4.04156 -0.769544 4.05603
                    CHANNELS 3 Zrotation Xrotation Yrotation
                    JOINT RightThumb2
                    {
                      OFFSET 0 0 2.02589
                      CHANNELS 3 Zrotation Xrotation Yrotation
                      JOINT RightThumb3
                      {
                        OFFSET 0 0 2.2547
                        CHANNELS 3 Zrotation Xrotation Yrotation
                        End Site
                        {
                          OFFSET 0 0 1.98481
                        }
                      }
                    }
                  }
                  JOINT RightIndex1
                  {
                    OFFSET -8.9246 0.379713 1.68648
                    CHANNELS 3 Zrotation Xrotation Yrotation
                    JOINT RightIndex2
                    {
                      OFFSET -3.49335 0 0
                      CHANNELS 3 Zrotation Xrotation Yrotation
                      JOINT RightIndex3
                      {
                        OFFSET -2.30259 0 0
                        CHANNELS 3 Zrotation Xrotation Yrotation
                        End Site
                        {
                          OFFSET -2.40484 0.0582823 -0.0159417
                        }
                      }
                    }
                  }
                  JOINT RightMiddle1
                  {
                    OFFSET -9.00754 0.48286 -0.149125
                    CHANNELS 3 Zrotation Xrotation Yrotation
                    JOINT RightMiddle2
                    {
                      OFFSET -4.17035 3.30449e-005 0.000505943
                      CHANNELS 3 Zrotation Xrotation Yrotation
                      JOINT RightMiddle3
                      {
                        OFFSET -2.83121 -5.05999e-005 -0.000505859
                        CHANNELS 3 Zrotation Xrotation Yrotation
                        End Site
                        {
                          OFFSET -2.69907 -4.50544e-005 -0.000462431
                        }
                      }
                    }
                  }
                  JOINT RightRing1
                  {
                    OFFSET -8.30254 0.366258 -1.90007
                    CHANNELS 3 Zrotation Xrotation Yrotation
                    JOINT RightRing2
                    {
                      OFFSET -4.14509 0 0
                      CHANNELS 3 Zrotation Xrotation Yrotation
                      JOINT RightRing3
                      {
                        OFFSET -2.2555 0 0
                        CHANNELS 3 Zrotation Xrotation Yrotation
                        End Site
                        {
                          OFFSET -2.34215 -2.72542e-005 -0.0077418
                        }
                      }
                    }
                  }
                  JOINT RightPinky1
                  {
                    OFFSET -7.5903 0.488569 -3.42046
                    CHANNELS 3 Zrotation Xrotation Yrotation
                    JOINT RightPinky2
                    {
                      OFFSET -2.95912 0 8.02425e-005
                      CHANNELS 3 Zrotation Xrotation Yrotation
                      JOINT RightPinky3
                      {
                        OFFSET -1.64292 0 0
                        CHANNELS 3 Zrotation Xrotation Yrotation
                        End Site
                        {
                          OFFSET -2.19515 -1.70998e-005 0.00902525
                        }
                      }
                    }
                  }
                }
              }
            }
          }
        }
      }
    }
  }
  JOINT LeftUpLeg
  {
    OFFSET 8.91 -6.27 -2.145
    CHANNELS 3 Zrotation Xrotation Yrotation
    JOINT LeftLeg
    {
      OFFSET 0 -44.8786 0
      CHANNELS 3 Zrotation Xrotation Yrotation
      JOINT LeftFoot
      {
        OFFSET 0 -40.701 0
        CHANNELS 3 Zrotation Xrotation Yrotation
        JOINT LeftToeBase
        {
          OFFSET 0 -7.70852 13.0052
          CHANNELS 3 Zrotation Xrotation Yrotation
          End Site
          {
            OFFSET 0 0 5.96686
          }
        }
      }
    }
  }
  JOINT RightUpLeg
  {
    OFFSET -8.91 -6.27 -2.145
    CHANNELS 3 Zrotation Xrotation Yrotation
    JOINT RightLeg
    {
      OFFSET 0 -44.8786 0
      CHANNELS 3 Zrotation Xrotation Yrotation
      JOINT RightFoot
      {
        OFFSET 0 -40.701 0
        CHANNELS 3 Zrotation Xrotation Yrotation
        JOINT RightToeBase
        {
          OFFSET 5.84395e-005 -7.70852 13.0052
          CHANNELS 3 Zrotation Xrotation Yrotation
          End Site
          {
            OFFSET 0 0.000942417 5.96686
          }
        }
      }
    }
  }
}
MOTION
Frames:	8
Frame Time:	0.0416667
6.94559 97.9826 -5.97226 2.26469 0.00693492 -0.24724 -2.65048 0.00866958 0.263474 -0.173438 0.0121671 0.00752424 -0.173558 0.0121671 0.00751486 -0.173469 0.0121671 0.00750545 0.000648818 -2.11507e-013 0.00390578 5.58539e-005 -5.42856e-013 -6.32696e-005 -0 0 0 -0.000672778 0 -0.00384251 -0.000672778 0 -0.00384251 0.000735282 -1.34739e-013 3.34642e-014 -0 90 -0.000703389 180 7.01648e-015 -180 -0 90 3.08218e-010 0.00110607 -9.18323e-005 -2.71416 -0 0 0 -0 0 0 0.000341683 -2.84859e-005 -0.223324 -0 0 0 -0 0 0 0.000337138 -2.81019e-005 -0.60411 -0 0 0 -0 0 0 -0.125539 -0.00437486 -0.350696 -0 0 0 -0 0 0 -0 0 0 -0 0 0 -0 0 0 -0.00231836 -1.32391e-013 2.56556e-014 -9.85759e-012 -5.03249e-012 1.25528e-012 -1.72594e-010 -1.86637e-010 4.41804e-007 -2.2447e-009 -1.00854e-009 2.76188e-010 -0.0150869 -0.759984 0.125083 -0.00465919 -0.18536 -2.4008 -0.0297188 1.77127 1.05974 0.711024 -0.00512048 -0.431681 3.87261e-011 0 -0 4.98065e-012 0 -0 -0.00107338 0.000256216 -1.1118 6.34755e-011 0 -0 4.98065e-012 0 -0 -0.00093116 0.000179988 0.500065 1.16681e-010 0 -0 4.98065e-012 0 -0 0.000652006 7.14466e-005 -0.393712 4.52376e-011 0 -0 4.98064e-012 0 -0 -4.93267 -1.1377 0.434567 -1.7334e-005 13.8634 0.157209 2.69952 -10.7562 0.254182 -4.21381e-011 -2.04736e-011 1.24519e-011 0.501819 4.72498 -0.0260292 -7.70793e-005 3.38354 0.0286852 -2.79323 -6.11571 -0.153699 0.00291259 -2.3959e-011 1.03193e-011 
6.87695 97.9869 -5.86612 2.23945 -0.0596053 -0.532742 -2.65215 0.0123936 0.290951 -0.171239 0.0193765 0.0472161 -0.171351 0.0194969 0.0471857 -0.171254 0.0196174 0.0471552 0.000648818 -2.11507e-013 0.00390578 0.0263706 -0.595825 -0.527477 -0 0 0 -0.000672778 0 -0.00384251 -0.000672778 0 -0.00384251 0.309951 -0.0381457 -0.0448393 -161.274 88.2019 160.644 -179.052 -0.0239251 179.575 2.49609 86.6693 -3.46086 0.00110607 -9.18323e-005 -2.71416 -0 0 0 -0 0 0 0.000341683 -2.84859e-005 -0.223324 -0 0 0 -0 0 0 0.000337138 -2.81019e-005 -0.60411 -0 0 0 -0 0 0 -0.125539 -0.00437486 -0.350696 -0 0 0 -0 0 0 -0 0 0 -0 0 0 -0 0 0 -0.164679 -0.027613 0.139287 -0.229854 0.0530773 0.090083 0.133257 0.0104043 -0.00391733 -0.517811 -0.625807 0.830942 -0.0150869 -0.759984 0.125083 -0.00465919 -0.18536 -2.4008 -0.0297188 1.77127 1.05974 0.711024 -0.00512048 -0.431681 3.87261e-011 0 -0 4.98065e-012 0 -0 -0.00107338 0.000256216 -1.1118 6.34755e-011 0 -0 4.98065e-012 0 -0 -0.00093116 0.000179988 0.500065 1.16681e-010 0 -0 4.98065e-012 0 -0 0.000652006 7.14466e-005 -0.393712 4.52376e-011 0 -0 4.98064e-012 0 -0 -4.95481 -0.76899 0.472916 0.154413 13.4451 0.15591 2.71127 -10.5773 0.329431 0.0763793 -0.992635 0.131173 0.587814 4.9918 1.6766 -0.068543 3.19391 0.0694006 -2.14475 -6.33225 -1.3939 0.0272288 0.337744 -0.00824886 
6.82069 97.9667 -5.81894 2.25991 -0.0796409 -0.534328 -2.68366 0.0304428 0.294998 -0.204193 0.0563368 0.0387754 -0.204311 0.0564276 0.038641 -0.204221 0.0565186 0.0385064 0.000648818 -2.11507e-013 0.00390578 0.197546 -0.84861 -0.662143 -0 0 0 -0.000672778 0 -0.00384251 -0.000672778 0 -0.00384251 0.24633 -0.0305361 -0.0437221 -166.869 88.3677 166.519 -179.272 -0.017059 179.673 3.07051 87.1233 -4.05421 0.00110607 -9.18323e-005 -2.71416 -0 0 0 -0 0 0 0.000341683 -2.84859e-005 -0.223324 -0 0 0 -0 0 0 0.000337138 -2.81019e-005 -0.60411 -0 0 0 -0 0 0 -0.125539 -0.00437486 -0.350696 -0 0 0 -0 0 0 -0 0 0 -0 0 0 -0 0 0 -0.227011 -0.0389429 -0.146742 -0.265566 -0.00713897 0.392365 -0.0256916 -0.00201037 0.0754087 -0.342495 -0.513593 0.833392 -0.0150869 -0.759984 0.125083 -0.00465919 -0.18536 -2.4008 -0.0297188 1.77127 1.05974 0.711024 -0.00512048 -0.431681 3.87261e-011 0 -0 4.98065e-012 0 -0 -0.00107338 0.000256216 -1.1118 6.34755e-011 0 -0 4.98065e-012 0 -0 -0.00093116 0.000179988 0.500065 1.16681e-010 0 -0 4.98065e-012 0 -0 0.000652006 7.14466e-005 -0.393712 4.52376e-011 0 -0 4.98064e-012 0 -0 -4.92477 -0.757748 0.631818 0.143509 13.5132 0.143837 2.62423 -10.7684 0.260484 0.068249 -0.870639 0.115037 0.550935 5.11242 1.61547 -0.0905636 3.13197 0.0438922 -2.56698 -6.2866 -1.17663 -0.0325141 -0.492736 0.0120986 
6.77898 97.9699 -5.76179 2.25607 -0.0946904 -0.649794 -2.68398 0.0359266 0.296864 -0.225569 0.0525546 0.0252433 -0.22569 0.0525996 0.0251266 -0.225602 0.0526447 0.0250099 0.000648818 -2.11507e-013 0.00390578 0.158454 -0.838419 -0.749123 -0 0 0 -0.000672778 0 -0.00384251 -0.000672778 0 -0.00384251 0.272348 -0.0339683 -0.0576553 -168.571 88.1505 168.244 -179.259 -0.0157773 179.667 8.07962 86.7904 -9.08217 0.00110607 -9.18323e-005 -2.71416 -0 0 0 -0 0 0 0.000341683 -2.84859e-005 -0.223324 -0 0 0 -0 0 0 0.000337138 -2.81019e-005 -0.60411 -0 0 0 -0 0 0 -0.125539 -0.00437486 -0.350696 -0 0 0 -0 0 0 -0 0 0 -0 0 0 -0 0 0 -0.317336 -0.0542814 -0.175466 -0.287038 0.073386 0.72575 -0.170893 -0.0134572 0.281224 -0.312662 -0.623752 0.861454 -0.0150869 -0.759984 0.125083 -0.00465919 -0.18536 -2.4008 -0.0297188 1.77127 1.05974 0.711024 -0.00512048 -0.431681 3.87261e-011 0 -0 4.98065e-012 0 -0 -0.00107338 0.000256216 -1.1118 6.34755e-011 0 -0 4.98065e-012 0 -0 -0.00093116 0.000179988 0.500065 1.16681e-010 0 -0 4.98065e-012 0 -0 0.000652006 7.14466e-005 -0.393712 4.52376e-011 0 -0 4.98064e-012 0 -0 -4.90388 -0.670213 0.688889 0.155916 13.4571 0.154349 2.74113 -10.7513 0.29123 0.0726334 -0.903207 0.119391 0.576641 5.11982 1.63246 -0.0705551 3.18827 0.033572 -2.75747 -6.25961 -1.1667 -0.0391255 -0.584691 0.00821179 
6.72628 97.9697 -5.70033 2.25054 -0.101616 -0.760173 -2.68432 0.0375839 0.296386 -0.237414 0.0487311 0.0167228 -0.237537 0.0487719 0.0165974 -0.237452 0.048815 0.016472 0.000648818 -2.11507e-013 0.00390578 0.105268 -0.808957 -0.782214 -0 0 0 -0.000672778 0 -0.00384251 -0.000672778 0 -0.00384251 0.302795 -0.0425361 -0.14966 -168.464 88.1711 168.125 -179.294 -0.0160825 179.683 5.73065 86.8198 -6.74698 0.00110607 -9.18323e-005 -2.71416 -0 0 0 -0 0 0 0.000341683 -2.84859e-005 -0.223324 -0 0 0 -0 0 0 0.000337138 -2.81019e-005 -0.60411 -0 0 0 -0 0 0 -0.125539 -0.00437486 -0.350696 -0 0 0 -0 0 0 -0 0 0 -0 0 0 -0 0 0 -0.398172 -0.0680679 -0.0780538 -0.428854 0.157734 1.02901 -0.128287 -0.0100224 0.212578 -0.193253 -0.487426 0.838693 -0.0150869 -0.759984 0.125083 -0.00465919 -0.18536 -2.4008 -0.0297188 1.77127 1.05974 0.711024 -0.00512048 -0.431681 3.87261e-011 0 -0 4.98065e-012 0 -0 -0.00107338 0.000256216 -1.1118 6.34755e-011 0 -0 4.98065e-012 0 -0 -0.00093116 0.000179988 0.500065 1.16681e-010 0 -0 4.98065e-012 0 -0 0.000652006 7.14466e-005 -0.393712 4.52376e-011 0 -0 4.98064e-012 0 -0 -4.87973 -0.62144 0.730871 0.153447 13.4636 0.158799 2.77695 -10.7711 0.391736 0.0760327 -0.988294 0.13064 0.59439 5.15009 1.71054 -0.0638159 3.20716 0.028186 -2.85933 -6.24585 -1.08724 -0.0392879 -0.586913 0.00721925 
6.67 97.974 -5.63426 2.21677 -0.121341 -1.0026 -2.6839 0.0373486 0.295485 -0.239659 0.051278 0.032664 -0.239778 0.0513433 0.0325545 -0.239688 0.0514087 0.0324449 0.000648818 -2.11507e-013 0.00390578 0.216875 -0.851877 -0.805731 -0 0 0 -0.000672778 0 -0.00384251 -0.000672778 0 -0.00384251 0.324167 -0.0458061 -0.225861 -166.005 88.1723 165.601 -179.278 -0.017822 179.676 3.83481 86.6948 -4.77078 0.00110607 -9.18323e-005 -2.71416 -0 0 0 -0 0 0 0.000341683 -2.84859e-005 -0.223324 -0 0 0 -0 0 0 0.000337138 -2.81019e-005 -0.60411 -0 0 0 -0 0 0 -0.125539 -0.00437486 -0.350696 -0 0 0 -0 0 0 -0 0 0 -0 0 0 -0 0 0 -0.46137 -0.079641 0.213038 -0.562401 -0.128821 1.20095 -0.00587636 -0.000435214 0.00973906 -0.249835 -0.266892 0.972956 -0.0150869 -0.759984 0.125083 -0.00465919 -0.18536 -2.4008 -0.0297188 1.77127 1.05974 0.711024 -0.00512048 -0.431681 3.87261e-011 0 -0 4.98065e-012 0 -0 -0.00107338 0.000256216 -1.1118 6.34755e-011 0 -0 4.98065e-012 0 -0 -0.00093116 0.000179988 0.500065 1.16681e-010 0 -0 4.98065e-012 0 -0 0.000652006 7.14466e-005 -0.393712 4.52376e-011 0 -0 4.98064e-012 0 -0 -4.83431 -0.544066 0.890495 0.154748 13.4403 0.161375 2.7946 -10.8353 0.488145 0.0746474 -0.970542 0.128281 0.632958 5.15556 1.91752 -0.040352 3.27256 0.0245579 -2.8665 -6.24439 -1.08634 -0.0403918 -0.602307 0.00658899 
6.61615 97.9781 -5.60033 2.21874 -0.137366 -1.13097 -2.683 0.0361973 0.296162 -0.25039 0.0585732 0.0378437 -0.250508 0.058654 0.0377131 -0.250419 0.0587351 0.0375824 0.000648818 -2.11507e-013 0.00390578 0.377346 -1.0201 -0.856275 -0 0 0 -0.000672778 0 -0.00384251 -0.000672778 0 -0.00384251 0.214409 -0.0335177 -0.257465 -164.776 88.2423 164.325 -179.075 -0.0234674 179.585 3.7093 86.8546 -4.69656 0.00110607 -9.18323e-005 -2.71416 -0 0 0 -0 0 0 0.000341683 -2.84859e-005 -0.223324 -0 0 0 -0 0 0 0.000337138 -2.81019e-005 -0.60411 -0 0 0 -0 0 0 -0.125539 -0.00437486 -0.350696 -0 0 0 -0 0 0 -0 0 0 -0 0 0 -0 0 0 -0.474331 -0.0822315 0.309347 -0.513607 0.102216 1.36236 -0.144059 -0.0112897 0.238715 -0.236601 -0.272064 1.05121 -0.0150869 -0.759984 0.125083 -0.00465919 -0.18536 -2.4008 -0.0297188 1.77127 1.05974 0.711024 -0.00512048 -0.431681 3.87261e-011 0 -0 4.98065e-012 0 -0 -0.00107338 0.000256216 -1.1118 6.34755e-011 0 -0 4.98065e-012 0 -0 -0.00093116 0.000179988 0.500065 1.16681e-010 0 -0 4.98065e-012 0 -0 0.000652006 7.14466e-005 -0.393712 4.52376e-011 0 -0 4.98064e-012 0 -0 -4.80754 -0.534344 0.930299 0.128722 13.5054 0.168856 2.82305 -10.7963 0.604696 0.0859378 -1.11497 0.147487 0.644537 5.1532 1.94677 -0.0198093 3.32936 0.0216549 -2.93449 -6.25277 -1.01178 -0.0357678 -0.537909 0.0064334 
6.55523 97.9801 -5.5556 2.2145 -0.14123 -1.22103 -2.67985 0.0352715 0.292256 -0.255595 0.0660259 0.0280574 -0.255717 0.0660764 0.0279054 -0.255631 0.0661272 0.0277534 0.000648818 -2.11507e-013 0.00390578 0.411885 -1.18011 -0.868523 -0 0 0 -0.000672778 0 -0.00384251 -0.000672778 0 -0.00384251 0.0174321 -0.01061 -0.304035 -162.995 88.2613 162.316 -178.87 -0.0294636 179.493 3.86835 86.8331 -4.93155 0.00110607 -9.18323e-005 -2.71416 -0 0 0 -0 0 0 0.000341683 -2.84859e-005 -0.223324 -0 0 0 -0 0 0 0.000337138 -2.81019e-005 -0.60411 -0 0 0 -0 0 0 -0.125539 -0.00437486 -0.350696 -0 0 0 -0 0 0 -0 0 0 -0 0 0 -0 0 0 -0.33042 -0.0567186 0.329782 -0.210864 0.250776 1.5743 -0.364924 -0.0297852 0.604801 -0.260327 -0.365286 1.09714 -0.0150869 -0.759984 0.125083 -0.00465919 -0.18536 -2.4008 -0.0297188 1.77127 1.05974 0.711024 -0.00512048 -0.431681 3.87261e-011 0 -0 4.98065e-012 0 -0 -0.00107338 0.000256216 -1.1118 6.34755e-011 0 -0 4.98065e-012 0 -0 -0.00093116 0.000179988 0.500065 1.16681e-010 0 -0 4.98065e-012 0 -0 0.000652006 7.14466e-005 -0.393712 4.52376e-011 0 -0 4.98064e-012 0 -0 -4.76773 -0.497032 1.04168 0.128866 13.4963 0.168697 2.79228 -10.8604 0.611842 0.0788918 -1.02496 0.135516 0.675458 5.15762 2.10665 -0.00585956 3.3677 0.0196519 -2.94042 -6.27696 -1.08758 -0.0395267 -0.587501 0.00640772 
